<svg width="118" height="145" viewBox="0 0 118 145" fill="none" xmlns="http://www.w3.org/2000/svg">
<g clip-path="url(#clip0)">
<path d="M101.72 123.47C98.01 123.32 98.39 18.06 99.92 5.47001C99.82 6.30001 4.78998 -9.17999 3.32998 15.89C1.72998 43.3 0.709979 81.58 2.29998 107C3.36998 124.13 9.44998 123.31 27.11 124.24C52.93 125.54 75.36 124.88 101.72 123.47Z" stroke="#0A3159" stroke-width="3" stroke-linecap="round" stroke-linejoin="round"/>
<path d="M2.41003 108.48C2.41003 94.23 73.08 102.24 98.95 101.48" stroke="#0A3159" stroke-width="3" stroke-linecap="round" stroke-linejoin="round"/>
<path d="M17.1899 4.56C17.1899 34.74 12.8199 68.41 16.1899 99.91" stroke="#0A3159" stroke-width="3" stroke-linecap="round" stroke-linejoin="round"/>
<path d="M115.7 38.12C112.7 19.99 98.0199 34.57 90.6999 38.79C85.4999 30.36 70.4599 24.55 69.9699 39.15C69.5999 49.88 90.4999 58.47 97.7199 63.88C103.76 58.48 117.31 47.7 115.7 38.12Z" fill="#DE5991" stroke="#0A3159" stroke-width="3" stroke-linecap="round" stroke-linejoin="round"/>
<path d="M43 110.3C41 120.67 42.42 130.9 42.71 141.07C39.37 137.23 35.2 135.25 32.88 131.77C28.33 134.77 25.64 137.89 21.23 142.77C22.23 131.22 22.23 117.28 21.63 111.91C28.31 109.77 35.86 111.31 43 110.3Z" fill="#09C7E7" fill-opacity="0.8" stroke="#0A3159" stroke-width="3" stroke-linecap="round" stroke-linejoin="round"/>
</g>
<defs>
<clipPath id="clip0">
<rect width="117.33" height="144.32" fill="white"/>
</clipPath>
</defs>
</svg>
